<svg xmlns="http://www.w3.org/2000/svg" xmlns:xlink="http://www.w3.org/1999/xlink" version="1.1" id="Layer_1" x="0px" y="0px" viewBox="0 0 100 100" enable-background="new 0 0 100 100" xml:space="preserve" height="100px" width="100px">
<path fill-rule="evenodd" clip-rule="evenodd" fill="#000000" d="M39.2,69.9l9.8,2.7c1.5,0.4,3.1-0.5,3.5-2c0.4-1.5-0.5-3.1-2-3.5  l-9.8-2.7c-1.5-0.4-3.1,0.5-3.5,2C36.8,67.9,37.7,69.5,39.2,69.9z"/>
<path fill-rule="evenodd" clip-rule="evenodd" fill="#000000" d="M37.2,37.3L31,45.4c-0.9,1.2-0.7,3,0.5,4c1.2,0.9,3,0.7,4-0.5  l6.2-8.1c0.9-1.2,0.7-3-0.5-4C39.9,35.8,38.1,36,37.2,37.3z"/>
<path fill-rule="evenodd" clip-rule="evenodd" fill="#000000" d="M64.6,51.3l-3.7-9.5c-0.6-1.5-2.2-2.2-3.7-1.6  c-1.5,0.6-2.2,2.2-1.6,3.7l3.7,9.5c0.6,1.5,2.2,2.2,3.7,1.6C64.5,54.4,65.2,52.7,64.6,51.3z"/>
<path fill="#000000" d="M23.3,51C17.1,51,12,56,12,62.3c0,6.3,5.1,11.3,11.3,11.3s11.3-5.1,11.3-11.3C34.6,56,29.6,51,23.3,51z   M20.7,54.8c-4.4,2.2-6.2,7.6-4,12c0.6,1.2,1.5,2.2,2.4,3c-1.7-0.8-3.1-2.1-4-3.9c-2.2-4.3-0.4-9.6,3.9-11.8  c2.5-1.3,5.3-1.2,7.7-0.1C24.7,53.7,22.6,53.8,20.7,54.8z"/>
<path fill="#000000" d="M64.2,24.2c0-7.2-5.8-13-13-13s-13,5.8-13,13c0,7.2,5.8,13,13,13S64.2,31.4,64.2,24.2z M47.8,15.2  c-4.9,2.5-6.9,8.5-4.4,13.4C44,30,45,31.1,46.1,32c-1.9-0.9-3.5-2.4-4.5-4.3C39.2,22.8,41.2,17,46,14.5c2.8-1.4,5.9-1.3,8.5-0.1  C52.3,14,50,14.2,47.8,15.2z"/>
<path fill="#000000" d="M70.9,57.8c-8.7,0-15.8,7.1-15.8,15.8c0,8.7,7.1,15.8,15.8,15.8s15.8-7.1,15.8-15.8  C86.6,64.9,79.6,57.8,70.9,57.8z M66.3,62.3c-6.4,3.2-8.9,11-5.7,17.3c0.8,1.5,1.8,2.8,3,3.9c-1.9-1.2-3.5-2.9-4.6-5  c-3.1-6.2-0.6-13.8,5.6-16.9c3.5-1.8,7.4-1.7,10.8-0.3C72.4,60.5,69.2,60.8,66.3,62.3z"/>
</svg>